<?xml version="1.0" encoding="utf-8" standalone="no"?>
<!DOCTYPE svg PUBLIC "-//W3C//DTD SVG 1.1//EN"
  "http://www.w3.org/Graphics/SVG/1.1/DTD/svg11.dtd">
<svg xmlns:xlink="http://www.w3.org/1999/xlink" width="582.036641pt" height="350.572168pt" viewBox="0 0 582.036641 350.572168" xmlns="http://www.w3.org/2000/svg" version="1.1">
 <metadata>
  <rdf:RDF xmlns:dc="http://purl.org/dc/elements/1.1/" xmlns:cc="http://creativecommons.org/ns#" xmlns:rdf="http://www.w3.org/1999/02/22-rdf-syntax-ns#">
   <cc:Work>
    <dc:type rdf:resource="http://purl.org/dc/dcmitype/StillImage"/>
    <dc:date>2026-09-20T14:13:11.173263</dc:date>
    <dc:format>image/svg+xml</dc:format>
    <dc:creator>
     <cc:Agent>
      <dc:title>Matplotlib v3.11.2, https://matplotlib.org/</dc:title>
     </cc:Agent>
    </dc:creator>
   </cc:Work>
  </rdf:RDF>
 </metadata>
 <defs>
  <style type="text/css">*{stroke-linejoin: round; stroke-linecap: butt}</style>
 </defs>
 <g id="figure_1">
  <g id="patch_1">
   <path d="M 0 350.572168 
L 582.036641 350.572168 
L 582.036641 0 
L 0 0 
z
" style="fill: #fcfcfb"/>
  </g>
  <g id="axes_1">
   <g id="patch_2">
    <path d="M 59.676641 301.34877 
L 561.876641 301.34877 
L 561.876641 24.14877 
L 59.676641 24.14877 
z
" style="fill: #fcfcfb"/>
   </g>
   <g id="matplotlib.axis_1">
    <g id="xtick_1">
     <g id="line2d_1"/>
     <g id="text_1">
      <!-- из обычного -->
      <g style="fill: #52514e" transform="translate(109.970149 314.056982) scale(0.105 -0.105)">
       <defs>
        <path id="DejaVuSans-3cc" d="M 3578 3500 
L 3578 0 
L 3006 0 
L 3006 2809 
L 1319 0 
L 581 0 
L 581 3500 
L 1153 3500 
L 1153 697 
L 2838 3500 
L 3578 3500 
z
" transform="scale(0.015625)"/>
        <path id="DejaVuSans-3cb" d="M 2206 1888 
Q 2594 1813 2809 1584 
Q 3025 1356 3025 1019 
Q 3025 478 2622 193 
Q 2219 -91 1475 -91 
Q 1225 -91 961 -47 
Q 697 -3 416 84 
L 416 619 
Q 638 503 903 445 
Q 1169 388 1459 388 
Q 1931 388 2195 563 
Q 2459 738 2459 1019 
Q 2459 1294 2225 1461 
Q 1991 1628 1563 1628 
L 1100 1628 
L 1100 2103 
L 1584 2103 
Q 1947 2103 2158 2242 
Q 2369 2381 2369 2600 
Q 2369 2800 2151 2944 
Q 1934 3088 1563 3088 
Q 1341 3088 1089 3047 
Q 838 3006 534 2916 
L 534 3438 
Q 841 3513 1106 3550 
Q 1372 3588 1609 3588 
Q 2222 3588 2576 3342 
Q 2931 3097 2931 2656 
Q 2931 2366 2743 2164 
Q 2556 1963 2206 1888 
z
" transform="scale(0.015625)"/>
        <path id="DejaVuSans-3" transform="scale(0.015625)"/>
        <path id="DejaVuSans-3d2" d="M 1959 3097 
Q 1497 3097 1228 2736 
Q 959 2375 959 1747 
Q 959 1119 1226 758 
Q 1494 397 1959 397 
Q 2419 397 2687 759 
Q 2956 1122 2956 1747 
Q 2956 2369 2687 2733 
Q 2419 3097 1959 3097 
z
M 1959 3584 
Q 2709 3584 3137 3096 
Q 3566 2609 3566 1747 
Q 3566 888 3137 398 
Q 2709 -91 1959 -91 
Q 1206 -91 779 398 
Q 353 888 353 1747 
Q 353 2609 779 3096 
Q 1206 3584 1959 3584 
z
" transform="scale(0.015625)"/>
        <path id="DejaVuSans-3c5" d="M 1991 3584 
Q 2741 3584 3169 3096 
Q 3597 2609 3597 1747 
Q 3597 888 3169 398 
Q 2741 -91 1991 -91 
Q 1238 -91 822 384 
Q 406 859 384 1747 
L 366 2463 
Q 350 2834 350 2963 
Q 350 3463 531 3831 
Q 816 4409 1308 4659 
Q 1800 4909 2625 4916 
Q 3006 4919 3175 4972 
L 3334 4516 
Q 3181 4453 3041 4450 
L 2259 4397 
Q 1866 4369 1628 4231 
Q 1006 3866 947 3388 
L 925 3213 
Q 1331 3584 1991 3584 
z
M 1991 3097 
Q 1528 3097 1259 2736 
Q 991 2375 991 1747 
Q 991 1119 1258 758 
Q 1525 397 1991 397 
Q 2450 397 2719 759 
Q 2988 1122 2988 1747 
Q 2988 2369 2719 2733 
Q 2450 3097 1991 3097 
z
" transform="scale(0.015625)"/>
        <path id="DejaVuSans-3df" d="M 3909 3500 
L 4484 3500 
L 4484 0 
L 3909 0 
L 3909 3500 
z
M 4197 3584 
L 4197 3584 
z
M 2781 1038 
Q 2781 1319 2576 1466 
Q 2372 1613 1978 1613 
L 1159 1613 
L 1159 459 
L 1978 459 
Q 2372 459 2576 607 
Q 2781 756 2781 1038 
z
M 581 3500 
L 1159 3500 
L 1159 2072 
L 2003 2072 
Q 2672 2072 3033 1817 
Q 3394 1563 3394 1038 
Q 3394 513 3033 256 
Q 2672 0 2003 0 
L 581 0 
L 581 3500 
z
" transform="scale(0.015625)"/>
        <path id="DejaVuSans-3db" d="M 2625 0 
L 2625 1472 
L 1553 1472 
Q 1075 1472 756 1769 
Q 469 2038 469 2613 
L 469 3500 
L 1044 3500 
L 1044 2666 
Q 1044 2300 1206 2116 
Q 1372 1931 1697 1931 
L 2625 1931 
L 2625 3500 
L 3200 3500 
L 3200 0 
L 2625 0 
z
" transform="scale(0.015625)"/>
        <path id="DejaVuSans-3d1" d="M 581 3500 
L 1159 3500 
L 1159 2072 
L 3025 2072 
L 3025 3500 
L 3603 3500 
L 3603 0 
L 3025 0 
L 3025 1613 
L 1159 1613 
L 1159 0 
L 581 0 
L 581 3500 
z
" transform="scale(0.015625)"/>
        <path id="DejaVuSans-3c7" d="M 581 0 
L 581 3500 
L 3050 3500 
L 3050 3041 
L 1159 3041 
L 1159 0 
L 581 0 
z
" transform="scale(0.015625)"/>
       </defs>
       <use xlink:href="#DejaVuSans-3cc"/>
       <use xlink:href="#DejaVuSans-3cb" transform="translate(64.984375 0)"/>
       <use xlink:href="#DejaVuSans-3" transform="translate(118.15625 0)"/>
       <use xlink:href="#DejaVuSans-3d2" transform="translate(149.9375 0)"/>
       <use xlink:href="#DejaVuSans-3c5" transform="translate(211.125 0)"/>
       <use xlink:href="#DejaVuSans-3df" transform="translate(272.796875 0)"/>
       <use xlink:href="#DejaVuSans-3db" transform="translate(351.75 0)"/>
       <use xlink:href="#DejaVuSans-3d1" transform="translate(410.828125 0)"/>
       <use xlink:href="#DejaVuSans-3d2" transform="translate(476.203125 0)"/>
       <use xlink:href="#DejaVuSans-3c7" transform="translate(537.390625 0)"/>
       <use xlink:href="#DejaVuSans-3d2" transform="translate(589.9375 0)"/>
      </g>
      <!-- в обычный -->
      <g style="fill: #52514e" transform="translate(114.705814 326.838682) scale(0.105 -0.105)">
       <defs>
        <path id="DejaVuSans-3c6" d="M 1156 1613 
L 1156 459 
L 1975 459 
Q 2369 459 2575 607 
Q 2781 756 2781 1038 
Q 2781 1319 2575 1466 
Q 2369 1613 1975 1613 
L 1156 1613 
z
M 1156 3041 
L 1156 2072 
L 1913 2072 
Q 2238 2072 2444 2201 
Q 2650 2331 2650 2563 
Q 2650 2794 2444 2917 
Q 2238 3041 1913 3041 
L 1156 3041 
z
M 581 3500 
L 1950 3500 
Q 2566 3500 2897 3275 
Q 3228 3050 3228 2634 
Q 3228 2313 3059 2123 
Q 2891 1934 2559 1888 
Q 2956 1813 3175 1575 
Q 3394 1338 3394 981 
Q 3394 513 3033 256 
Q 2672 0 2003 0 
L 581 0 
L 581 3500 
z
" transform="scale(0.015625)"/>
        <path id="DejaVuSans-3cd" d="M 3578 3500 
L 3578 0 
L 3006 0 
L 3006 2809 
L 1319 0 
L 581 0 
L 581 3500 
L 1153 3500 
L 1153 697 
L 2838 3500 
L 3578 3500 
z
M 1103 4862 
L 1472 4862 
Q 1506 4628 1657 4510 
Q 1809 4393 2081 4393 
Q 2350 4393 2500 4509 
Q 2650 4625 2690 4862 
L 3059 4862 
Q 3028 4415 2781 4190 
Q 2534 3965 2081 3965 
Q 1628 3965 1381 4190 
Q 1134 4415 1103 4862 
z
" transform="scale(0.015625)"/>
       </defs>
       <use xlink:href="#DejaVuSans-3c6"/>
       <use xlink:href="#DejaVuSans-3" transform="translate(58.9375 0)"/>
       <use xlink:href="#DejaVuSans-3d2" transform="translate(90.71875 0)"/>
       <use xlink:href="#DejaVuSans-3c5" transform="translate(151.90625 0)"/>
       <use xlink:href="#DejaVuSans-3df" transform="translate(213.578125 0)"/>
       <use xlink:href="#DejaVuSans-3db" transform="translate(292.53125 0)"/>
       <use xlink:href="#DejaVuSans-3d1" transform="translate(351.609375 0)"/>
       <use xlink:href="#DejaVuSans-3df" transform="translate(416.984375 0)"/>
       <use xlink:href="#DejaVuSans-3cd" transform="translate(495.9375 0)"/>
      </g>
     </g>
    </g>
    <g id="xtick_2">
     <g id="line2d_2"/>
     <g id="text_2">
      <!-- из обычного -->
      <g style="fill: #52514e" transform="translate(276.592578 314.056982) scale(0.105 -0.105)">
       <use xlink:href="#DejaVuSans-3cc"/>
       <use xlink:href="#DejaVuSans-3cb" transform="translate(64.984375 0)"/>
       <use xlink:href="#DejaVuSans-3" transform="translate(118.15625 0)"/>
       <use xlink:href="#DejaVuSans-3d2" transform="translate(149.9375 0)"/>
       <use xlink:href="#DejaVuSans-3c5" transform="translate(211.125 0)"/>
       <use xlink:href="#DejaVuSans-3df" transform="translate(272.796875 0)"/>
       <use xlink:href="#DejaVuSans-3db" transform="translate(351.75 0)"/>
       <use xlink:href="#DejaVuSans-3d1" transform="translate(410.828125 0)"/>
       <use xlink:href="#DejaVuSans-3d2" transform="translate(476.203125 0)"/>
       <use xlink:href="#DejaVuSans-3c7" transform="translate(537.390625 0)"/>
       <use xlink:href="#DejaVuSans-3d2" transform="translate(589.9375 0)"/>
      </g>
      <!-- в типизированный -->
      <g style="fill: #52514e" transform="translate(259.21918 326.659033) scale(0.105 -0.105)">
       <defs>
        <path id="DejaVuSans-3d6" d="M 188 3500 
L 3541 3500 
L 3541 3041 
L 2147 3041 
L 2147 0 
L 1581 0 
L 1581 3041 
L 188 3041 
L 188 3500 
z
" transform="scale(0.015625)"/>
        <path id="DejaVuSans-3d3" d="M 3603 3500 
L 3603 0 
L 3025 0 
L 3025 3041 
L 1159 3041 
L 1159 0 
L 581 0 
L 581 3500 
L 3603 3500 
z
" transform="scale(0.015625)"/>
        <path id="DejaVuSans-3d4" d="M 1159 525 
L 1159 -1331 
L 581 -1331 
L 581 3500 
L 1159 3500 
L 1159 2969 
Q 1341 3281 1617 3432 
Q 1894 3584 2278 3584 
Q 2916 3584 3314 3078 
Q 3713 2572 3713 1747 
Q 3713 922 3314 415 
Q 2916 -91 2278 -91 
Q 1894 -91 1617 61 
Q 1341 213 1159 525 
z
M 3116 1747 
Q 3116 2381 2855 2742 
Q 2594 3103 2138 3103 
Q 1681 3103 1420 2742 
Q 1159 2381 1159 1747 
Q 1159 1113 1420 752 
Q 1681 391 2138 391 
Q 2594 391 2855 752 
Q 3116 1113 3116 1747 
z
" transform="scale(0.015625)"/>
        <path id="DejaVuSans-3c4" d="M 2194 1759 
Q 1497 1759 1228 1600 
Q 959 1441 959 1056 
Q 959 750 1161 570 
Q 1363 391 1709 391 
Q 2188 391 2477 730 
Q 2766 1069 2766 1631 
L 2766 1759 
L 2194 1759 
z
M 3341 1997 
L 3341 0 
L 2766 0 
L 2766 531 
Q 2569 213 2275 61 
Q 1981 -91 1556 -91 
Q 1019 -91 701 211 
Q 384 513 384 1019 
Q 384 1609 779 1909 
Q 1175 2209 1959 2209 
L 2766 2209 
L 2766 2266 
Q 2766 2663 2505 2880 
Q 2244 3097 1772 3097 
Q 1472 3097 1187 3025 
Q 903 2953 641 2809 
L 641 3341 
Q 956 3463 1253 3523 
Q 1550 3584 1831 3584 
Q 2591 3584 2966 3190 
Q 3341 2797 3341 1997 
z
" transform="scale(0.015625)"/>
       </defs>
       <use xlink:href="#DejaVuSans-3c6"/>
       <use xlink:href="#DejaVuSans-3" transform="translate(58.9375 0)"/>
       <use xlink:href="#DejaVuSans-3d6" transform="translate(90.71875 0)"/>
       <use xlink:href="#DejaVuSans-3cc" transform="translate(148.96875 0)"/>
       <use xlink:href="#DejaVuSans-3d3" transform="translate(213.953125 0)"/>
       <use xlink:href="#DejaVuSans-3cc" transform="translate(279.328125 0)"/>
       <use xlink:href="#DejaVuSans-3cb" transform="translate(344.3125 0)"/>
       <use xlink:href="#DejaVuSans-3cc" transform="translate(397.484375 0)"/>
       <use xlink:href="#DejaVuSans-3d4" transform="translate(462.46875 0)"/>
       <use xlink:href="#DejaVuSans-3d2" transform="translate(525.953125 0)"/>
       <use xlink:href="#DejaVuSans-3c6" transform="translate(587.140625 0)"/>
       <use xlink:href="#DejaVuSans-3c4" transform="translate(646.078125 0)"/>
       <use xlink:href="#DejaVuSans-3d1" transform="translate(707.359375 0)"/>
       <use xlink:href="#DejaVuSans-3d1" transform="translate(772.734375 0)"/>
       <use xlink:href="#DejaVuSans-3df" transform="translate(838.109375 0)"/>
       <use xlink:href="#DejaVuSans-3cd" transform="translate(917.0625 0)"/>
      </g>
     </g>
    </g>
    <g id="xtick_3">
     <g id="line2d_3"/>
     <g id="text_3">
      <!-- из типизированного -->
      <g style="fill: #52514e" transform="translate(421.105944 313.877334) scale(0.105 -0.105)">
       <use xlink:href="#DejaVuSans-3cc"/>
       <use xlink:href="#DejaVuSans-3cb" transform="translate(64.984375 0)"/>
       <use xlink:href="#DejaVuSans-3" transform="translate(118.15625 0)"/>
       <use xlink:href="#DejaVuSans-3d6" transform="translate(149.9375 0)"/>
       <use xlink:href="#DejaVuSans-3cc" transform="translate(208.1875 0)"/>
       <use xlink:href="#DejaVuSans-3d3" transform="translate(273.171875 0)"/>
       <use xlink:href="#DejaVuSans-3cc" transform="translate(338.546875 0)"/>
       <use xlink:href="#DejaVuSans-3cb" transform="translate(403.53125 0)"/>
       <use xlink:href="#DejaVuSans-3cc" transform="translate(456.703125 0)"/>
       <use xlink:href="#DejaVuSans-3d4" transform="translate(521.6875 0)"/>
       <use xlink:href="#DejaVuSans-3d2" transform="translate(585.171875 0)"/>
       <use xlink:href="#DejaVuSans-3c6" transform="translate(646.359375 0)"/>
       <use xlink:href="#DejaVuSans-3c4" transform="translate(705.296875 0)"/>
       <use xlink:href="#DejaVuSans-3d1" transform="translate(766.578125 0)"/>
       <use xlink:href="#DejaVuSans-3d1" transform="translate(831.953125 0)"/>
       <use xlink:href="#DejaVuSans-3d2" transform="translate(897.328125 0)"/>
       <use xlink:href="#DejaVuSans-3c7" transform="translate(958.515625 0)"/>
       <use xlink:href="#DejaVuSans-3d2" transform="translate(1011.0625 0)"/>
      </g>
      <!-- в типизированный -->
      <g style="fill: #52514e" transform="translate(425.841608 326.479385) scale(0.105 -0.105)">
       <use xlink:href="#DejaVuSans-3c6"/>
       <use xlink:href="#DejaVuSans-3" transform="translate(58.9375 0)"/>
       <use xlink:href="#DejaVuSans-3d6" transform="translate(90.71875 0)"/>
       <use xlink:href="#DejaVuSans-3cc" transform="translate(148.96875 0)"/>
       <use xlink:href="#DejaVuSans-3d3" transform="translate(213.953125 0)"/>
       <use xlink:href="#DejaVuSans-3cc" transform="translate(279.328125 0)"/>
       <use xlink:href="#DejaVuSans-3cb" transform="translate(344.3125 0)"/>
       <use xlink:href="#DejaVuSans-3cc" transform="translate(397.484375 0)"/>
       <use xlink:href="#DejaVuSans-3d4" transform="translate(462.46875 0)"/>
       <use xlink:href="#DejaVuSans-3d2" transform="translate(525.953125 0)"/>
       <use xlink:href="#DejaVuSans-3c6" transform="translate(587.140625 0)"/>
       <use xlink:href="#DejaVuSans-3c4" transform="translate(646.078125 0)"/>
       <use xlink:href="#DejaVuSans-3d1" transform="translate(707.359375 0)"/>
       <use xlink:href="#DejaVuSans-3d1" transform="translate(772.734375 0)"/>
       <use xlink:href="#DejaVuSans-3df" transform="translate(838.109375 0)"/>
       <use xlink:href="#DejaVuSans-3cd" transform="translate(917.0625 0)"/>
      </g>
     </g>
    </g>
   </g>
   <g id="matplotlib.axis_2">
    <g id="ytick_1">
     <g id="line2d_4">
      <path d="M 59.676641 301.34877 
L 561.876641 301.34877 
" clip-path="url(#p99de4f6a91)" style="fill: none; stroke: #e5e4e0; stroke-width: 0.8; stroke-linecap: square"/>
     </g>
     <g id="line2d_5"/>
     <g id="text_4">
      <!-- 0 нс -->
      <g style="fill: #52514e" transform="translate(33.52125 305.337539) scale(0.105 -0.105)">
       <defs>
        <path id="DejaVuSans-13" d="M 2034 4250 
Q 1547 4250 1301 3770 
Q 1056 3291 1056 2328 
Q 1056 1369 1301 889 
Q 1547 409 2034 409 
Q 2525 409 2770 889 
Q 3016 1369 3016 2328 
Q 3016 3291 2770 3770 
Q 2525 4250 2034 4250 
z
M 2034 4750 
Q 2819 4750 3233 4129 
Q 3647 3509 3647 2328 
Q 3647 1150 3233 529 
Q 2819 -91 2034 -91 
Q 1250 -91 836 529 
Q 422 1150 422 2328 
Q 422 3509 836 4129 
Q 1250 4750 2034 4750 
z
" transform="scale(0.015625)"/>
        <path id="DejaVuSans-3d5" d="M 3122 3366 
L 3122 2828 
Q 2878 2963 2633 3030 
Q 2388 3097 2138 3097 
Q 1578 3097 1268 2742 
Q 959 2388 959 1747 
Q 959 1106 1268 751 
Q 1578 397 2138 397 
Q 2388 397 2633 464 
Q 2878 531 3122 666 
L 3122 134 
Q 2881 22 2623 -34 
Q 2366 -91 2075 -91 
Q 1284 -91 818 406 
Q 353 903 353 1747 
Q 353 2603 823 3093 
Q 1294 3584 2113 3584 
Q 2378 3584 2631 3529 
Q 2884 3475 3122 3366 
z
" transform="scale(0.015625)"/>
       </defs>
       <use xlink:href="#DejaVuSans-13"/>
       <use xlink:href="#DejaVuSans-3" transform="translate(63.625 0)"/>
       <use xlink:href="#DejaVuSans-3d1" transform="translate(95.40625 0)"/>
       <use xlink:href="#DejaVuSans-3d5" transform="translate(160.78125 0)"/>
      </g>
     </g>
    </g>
    <g id="ytick_2">
     <g id="line2d_6">
      <path d="M 59.676641 255.14877 
L 561.876641 255.14877 
" clip-path="url(#p99de4f6a91)" style="fill: none; stroke: #e5e4e0; stroke-width: 0.8; stroke-linecap: square"/>
     </g>
     <g id="line2d_7"/>
     <g id="text_5">
      <!-- 50 нс -->
      <g style="fill: #52514e" transform="translate(26.840625 259.137539) scale(0.105 -0.105)">
       <defs>
        <path id="DejaVuSans-18" d="M 691 4666 
L 3169 4666 
L 3169 4134 
L 1269 4134 
L 1269 2991 
Q 1406 3038 1543 3061 
Q 1681 3084 1819 3084 
Q 2600 3084 3056 2656 
Q 3513 2228 3513 1497 
Q 3513 744 3044 326 
Q 2575 -91 1722 -91 
Q 1428 -91 1123 -41 
Q 819 9 494 109 
L 494 744 
Q 775 591 1075 516 
Q 1375 441 1709 441 
Q 2250 441 2565 725 
Q 2881 1009 2881 1497 
Q 2881 1984 2565 2268 
Q 2250 2553 1709 2553 
Q 1456 2553 1204 2497 
Q 953 2441 691 2322 
L 691 4666 
z
" transform="scale(0.015625)"/>
       </defs>
       <use xlink:href="#DejaVuSans-18"/>
       <use xlink:href="#DejaVuSans-13" transform="translate(63.625 0)"/>
       <use xlink:href="#DejaVuSans-3" transform="translate(127.25 0)"/>
       <use xlink:href="#DejaVuSans-3d1" transform="translate(159.03125 0)"/>
       <use xlink:href="#DejaVuSans-3d5" transform="translate(224.40625 0)"/>
      </g>
     </g>
    </g>
    <g id="ytick_3">
     <g id="line2d_8">
      <path d="M 59.676641 208.94877 
L 561.876641 208.94877 
" clip-path="url(#p99de4f6a91)" style="fill: none; stroke: #e5e4e0; stroke-width: 0.8; stroke-linecap: square"/>
     </g>
     <g id="line2d_9"/>
     <g id="text_6">
      <!-- 100 нс -->
      <g style="fill: #52514e" transform="translate(20.16 212.937539) scale(0.105 -0.105)">
       <defs>
        <path id="DejaVuSans-14" d="M 794 531 
L 1825 531 
L 1825 4091 
L 703 3866 
L 703 4441 
L 1819 4666 
L 2450 4666 
L 2450 531 
L 3481 531 
L 3481 0 
L 794 0 
L 794 531 
z
" transform="scale(0.015625)"/>
       </defs>
       <use xlink:href="#DejaVuSans-14"/>
       <use xlink:href="#DejaVuSans-13" transform="translate(63.625 0)"/>
       <use xlink:href="#DejaVuSans-13" transform="translate(127.25 0)"/>
       <use xlink:href="#DejaVuSans-3" transform="translate(190.875 0)"/>
       <use xlink:href="#DejaVuSans-3d1" transform="translate(222.65625 0)"/>
       <use xlink:href="#DejaVuSans-3d5" transform="translate(288.03125 0)"/>
      </g>
     </g>
    </g>
    <g id="ytick_4">
     <g id="line2d_10">
      <path d="M 59.676641 162.74877 
L 561.876641 162.74877 
" clip-path="url(#p99de4f6a91)" style="fill: none; stroke: #e5e4e0; stroke-width: 0.8; stroke-linecap: square"/>
     </g>
     <g id="line2d_11"/>
     <g id="text_7">
      <!-- 150 нс -->
      <g style="fill: #52514e" transform="translate(20.16 166.737539) scale(0.105 -0.105)">
       <use xlink:href="#DejaVuSans-14"/>
       <use xlink:href="#DejaVuSans-18" transform="translate(63.625 0)"/>
       <use xlink:href="#DejaVuSans-13" transform="translate(127.25 0)"/>
       <use xlink:href="#DejaVuSans-3" transform="translate(190.875 0)"/>
       <use xlink:href="#DejaVuSans-3d1" transform="translate(222.65625 0)"/>
       <use xlink:href="#DejaVuSans-3d5" transform="translate(288.03125 0)"/>
      </g>
     </g>
    </g>
    <g id="ytick_5">
     <g id="line2d_12">
      <path d="M 59.676641 116.54877 
L 561.876641 116.54877 
" clip-path="url(#p99de4f6a91)" style="fill: none; stroke: #e5e4e0; stroke-width: 0.8; stroke-linecap: square"/>
     </g>
     <g id="line2d_13"/>
     <g id="text_8">
      <!-- 200 нс -->
      <g style="fill: #52514e" transform="translate(20.16 120.537539) scale(0.105 -0.105)">
       <defs>
        <path id="DejaVuSans-15" d="M 1228 531 
L 3431 531 
L 3431 0 
L 469 0 
L 469 531 
Q 828 903 1448 1529 
Q 2069 2156 2228 2338 
Q 2531 2678 2651 2914 
Q 2772 3150 2772 3378 
Q 2772 3750 2511 3984 
Q 2250 4219 1831 4219 
Q 1534 4219 1204 4116 
Q 875 4013 500 3803 
L 500 4441 
Q 881 4594 1212 4672 
Q 1544 4750 1819 4750 
Q 2544 4750 2975 4387 
Q 3406 4025 3406 3419 
Q 3406 3131 3298 2873 
Q 3191 2616 2906 2266 
Q 2828 2175 2409 1742 
Q 1991 1309 1228 531 
z
" transform="scale(0.015625)"/>
       </defs>
       <use xlink:href="#DejaVuSans-15"/>
       <use xlink:href="#DejaVuSans-13" transform="translate(63.625 0)"/>
       <use xlink:href="#DejaVuSans-13" transform="translate(127.25 0)"/>
       <use xlink:href="#DejaVuSans-3" transform="translate(190.875 0)"/>
       <use xlink:href="#DejaVuSans-3d1" transform="translate(222.65625 0)"/>
       <use xlink:href="#DejaVuSans-3d5" transform="translate(288.03125 0)"/>
      </g>
     </g>
    </g>
    <g id="ytick_6">
     <g id="line2d_14">
      <path d="M 59.676641 70.34877 
L 561.876641 70.34877 
" clip-path="url(#p99de4f6a91)" style="fill: none; stroke: #e5e4e0; stroke-width: 0.8; stroke-linecap: square"/>
     </g>
     <g id="line2d_15"/>
     <g id="text_9">
      <!-- 250 нс -->
      <g style="fill: #52514e" transform="translate(20.16 74.337539) scale(0.105 -0.105)">
       <use xlink:href="#DejaVuSans-15"/>
       <use xlink:href="#DejaVuSans-18" transform="translate(63.625 0)"/>
       <use xlink:href="#DejaVuSans-13" transform="translate(127.25 0)"/>
       <use xlink:href="#DejaVuSans-3" transform="translate(190.875 0)"/>
       <use xlink:href="#DejaVuSans-3d1" transform="translate(222.65625 0)"/>
       <use xlink:href="#DejaVuSans-3d5" transform="translate(288.03125 0)"/>
      </g>
     </g>
    </g>
    <g id="ytick_7">
     <g id="line2d_16">
      <path d="M 59.676641 24.14877 
L 561.876641 24.14877 
" clip-path="url(#p99de4f6a91)" style="fill: none; stroke: #e5e4e0; stroke-width: 0.8; stroke-linecap: square"/>
     </g>
     <g id="line2d_17"/>
     <g id="text_10">
      <!-- 300 нс -->
      <g style="fill: #52514e" transform="translate(20.16 28.137539) scale(0.105 -0.105)">
       <defs>
        <path id="DejaVuSans-16" d="M 2597 2516 
Q 3050 2419 3304 2112 
Q 3559 1806 3559 1356 
Q 3559 666 3084 287 
Q 2609 -91 1734 -91 
Q 1441 -91 1130 -33 
Q 819 25 488 141 
L 488 750 
Q 750 597 1062 519 
Q 1375 441 1716 441 
Q 2309 441 2620 675 
Q 2931 909 2931 1356 
Q 2931 1769 2642 2001 
Q 2353 2234 1838 2234 
L 1294 2234 
L 1294 2753 
L 1863 2753 
Q 2328 2753 2575 2939 
Q 2822 3125 2822 3475 
Q 2822 3834 2567 4026 
Q 2313 4219 1838 4219 
Q 1578 4219 1281 4162 
Q 984 4106 628 3988 
L 628 4550 
Q 988 4650 1302 4700 
Q 1616 4750 1894 4750 
Q 2613 4750 3031 4423 
Q 3450 4097 3450 3541 
Q 3450 3153 3228 2886 
Q 3006 2619 2597 2516 
z
" transform="scale(0.015625)"/>
       </defs>
       <use xlink:href="#DejaVuSans-16"/>
       <use xlink:href="#DejaVuSans-13" transform="translate(63.625 0)"/>
       <use xlink:href="#DejaVuSans-13" transform="translate(127.25 0)"/>
       <use xlink:href="#DejaVuSans-3" transform="translate(190.875 0)"/>
       <use xlink:href="#DejaVuSans-3d1" transform="translate(222.65625 0)"/>
       <use xlink:href="#DejaVuSans-3d5" transform="translate(288.03125 0)"/>
      </g>
     </g>
    </g>
   </g>
   <g id="patch_3">
    <path d="M 59.676641 301.34877 
L 59.676641 24.14877 
" style="fill: none; stroke: #e5e4e0; stroke-width: 0.8; stroke-linejoin: miter; stroke-linecap: square"/>
   </g>
   <g id="patch_4">
    <path d="M 59.676641 301.34877 
L 561.876641 301.34877 
" style="fill: none; stroke: #e5e4e0; stroke-width: 0.8; stroke-linejoin: miter; stroke-linecap: square"/>
   </g>
   <g id="patch_5">
    <path d="M 82.503913 301.34877 
L 142.487988 301.34877 
L 142.487988 190.242008 
L 82.503913 190.242008 
z
" clip-path="url(#p99de4f6a91)" style="fill: #eb6834"/>
   </g>
   <g id="patch_6">
    <path d="M 249.126342 301.34877 
L 309.110416 301.34877 
L 309.110416 113.808172 
L 249.126342 113.808172 
z
" clip-path="url(#p99de4f6a91)" style="fill: #eb6834"/>
   </g>
   <g id="patch_7">
    <path d="M 415.748771 301.34877 
L 475.732845 301.34877 
L 475.732845 71.766197 
L 415.748771 71.766197 
z
" clip-path="url(#p99de4f6a91)" style="fill: #eb6834"/>
   </g>
   <g id="patch_8">
    <path d="M 145.820436 301.34877 
L 205.804511 301.34877 
L 205.804511 219.255244 
L 145.820436 219.255244 
z
" clip-path="url(#p99de4f6a91)" style="fill: #2a78d6"/>
   </g>
   <g id="patch_9">
    <path d="M 312.442865 301.34877 
L 372.426939 301.34877 
L 372.426939 224.829067 
L 312.442865 224.829067 
z
" clip-path="url(#p99de4f6a91)" style="fill: #2a78d6"/>
   </g>
   <g id="patch_10">
    <path d="M 479.065294 301.34877 
L 539.049368 301.34877 
L 539.049368 270.487205 
L 479.065294 270.487205 
z
" clip-path="url(#p99de4f6a91)" style="fill: #2a78d6"/>
   </g>
   <g id="text_11">
    <!-- 120 нс -->
    <g style="fill: #0b0b0b" transform="translate(94.48763 183.099547) scale(0.105 -0.105)">
     <use xlink:href="#DejaVuSans-14"/>
     <use xlink:href="#DejaVuSans-15" transform="translate(63.625 0)"/>
     <use xlink:href="#DejaVuSans-13" transform="translate(127.25 0)"/>
     <use xlink:href="#DejaVuSans-3" transform="translate(190.875 0)"/>
     <use xlink:href="#DejaVuSans-3d1" transform="translate(222.65625 0)"/>
     <use xlink:href="#DejaVuSans-3d5" transform="translate(288.03125 0)"/>
    </g>
   </g>
   <g id="text_12">
    <!-- 203 нс -->
    <g style="fill: #0b0b0b" transform="translate(261.110059 106.665712) scale(0.105 -0.105)">
     <use xlink:href="#DejaVuSans-15"/>
     <use xlink:href="#DejaVuSans-13" transform="translate(63.625 0)"/>
     <use xlink:href="#DejaVuSans-16" transform="translate(127.25 0)"/>
     <use xlink:href="#DejaVuSans-3" transform="translate(190.875 0)"/>
     <use xlink:href="#DejaVuSans-3d1" transform="translate(222.65625 0)"/>
     <use xlink:href="#DejaVuSans-3d5" transform="translate(288.03125 0)"/>
    </g>
   </g>
   <g id="text_13">
    <!-- 248 нс -->
    <g style="fill: #0b0b0b" transform="translate(427.732488 64.623736) scale(0.105 -0.105)">
     <defs>
      <path id="DejaVuSans-17" d="M 2419 4116 
L 825 1625 
L 2419 1625 
L 2419 4116 
z
M 2253 4666 
L 3047 4666 
L 3047 1625 
L 3713 1625 
L 3713 1100 
L 3047 1100 
L 3047 0 
L 2419 0 
L 2419 1100 
L 313 1100 
L 313 1709 
L 2253 4666 
z
" transform="scale(0.015625)"/>
      <path id="DejaVuSans-1b" d="M 2034 2216 
Q 1584 2216 1326 1975 
Q 1069 1734 1069 1313 
Q 1069 891 1326 650 
Q 1584 409 2034 409 
Q 2484 409 2743 651 
Q 3003 894 3003 1313 
Q 3003 1734 2745 1975 
Q 2488 2216 2034 2216 
z
M 1403 2484 
Q 997 2584 770 2862 
Q 544 3141 544 3541 
Q 544 4100 942 4425 
Q 1341 4750 2034 4750 
Q 2731 4750 3128 4425 
Q 3525 4100 3525 3541 
Q 3525 3141 3298 2862 
Q 3072 2584 2669 2484 
Q 3125 2378 3379 2068 
Q 3634 1759 3634 1313 
Q 3634 634 3220 271 
Q 2806 -91 2034 -91 
Q 1263 -91 848 271 
Q 434 634 434 1313 
Q 434 1759 690 2068 
Q 947 2378 1403 2484 
z
M 1172 3481 
Q 1172 3119 1398 2916 
Q 1625 2713 2034 2713 
Q 2441 2713 2670 2916 
Q 2900 3119 2900 3481 
Q 2900 3844 2670 4047 
Q 2441 4250 2034 4250 
Q 1625 4250 1398 4047 
Q 1172 3844 1172 3481 
z
" transform="scale(0.015625)"/>
     </defs>
     <use xlink:href="#DejaVuSans-15"/>
     <use xlink:href="#DejaVuSans-17" transform="translate(63.625 0)"/>
     <use xlink:href="#DejaVuSans-1b" transform="translate(127.25 0)"/>
     <use xlink:href="#DejaVuSans-3" transform="translate(190.875 0)"/>
     <use xlink:href="#DejaVuSans-3d1" transform="translate(222.65625 0)"/>
     <use xlink:href="#DejaVuSans-3d5" transform="translate(288.03125 0)"/>
    </g>
   </g>
   <g id="text_14">
    <!-- 89 нс -->
    <g style="fill: #0b0b0b" transform="translate(159.939427 212.112783) scale(0.105 -0.105)">
     <defs>
      <path id="DejaVuSans-Bold-1b" d="M 2228 2088 
Q 1891 2088 1709 1903 
Q 1528 1719 1528 1375 
Q 1528 1031 1709 848 
Q 1891 666 2228 666 
Q 2563 666 2741 848 
Q 2919 1031 2919 1375 
Q 2919 1722 2741 1905 
Q 2563 2088 2228 2088 
z
M 1350 2484 
Q 925 2613 709 2878 
Q 494 3144 494 3541 
Q 494 4131 934 4440 
Q 1375 4750 2228 4750 
Q 3075 4750 3515 4442 
Q 3956 4134 3956 3541 
Q 3956 3144 3739 2878 
Q 3522 2613 3097 2484 
Q 3572 2353 3814 2058 
Q 4056 1763 4056 1313 
Q 4056 619 3595 264 
Q 3134 -91 2228 -91 
Q 1319 -91 855 264 
Q 391 619 391 1313 
Q 391 1763 633 2058 
Q 875 2353 1350 2484 
z
M 1631 3419 
Q 1631 3141 1786 2991 
Q 1941 2841 2228 2841 
Q 2509 2841 2662 2991 
Q 2816 3141 2816 3419 
Q 2816 3697 2662 3845 
Q 2509 3994 2228 3994 
Q 1941 3994 1786 3844 
Q 1631 3694 1631 3419 
z
" transform="scale(0.015625)"/>
      <path id="DejaVuSans-Bold-1c" d="M 641 103 
L 641 966 
Q 928 831 1190 764 
Q 1453 697 1709 697 
Q 2247 697 2547 995 
Q 2847 1294 2900 1881 
Q 2688 1725 2447 1647 
Q 2206 1569 1925 1569 
Q 1209 1569 770 1986 
Q 331 2403 331 3084 
Q 331 3838 820 4291 
Q 1309 4744 2131 4744 
Q 3044 4744 3544 4128 
Q 4044 3513 4044 2388 
Q 4044 1231 3459 570 
Q 2875 -91 1856 -91 
Q 1528 -91 1228 -42 
Q 928 6 641 103 
z
M 2125 2350 
Q 2441 2350 2600 2554 
Q 2759 2759 2759 3169 
Q 2759 3575 2600 3781 
Q 2441 3988 2125 3988 
Q 1809 3988 1650 3781 
Q 1491 3575 1491 3169 
Q 1491 2759 1650 2554 
Q 1809 2350 2125 2350 
z
" transform="scale(0.015625)"/>
      <path id="DejaVuSans-Bold-3" transform="scale(0.015625)"/>
      <path id="DejaVuSans-Bold-3d1" d="M 538 3500 
L 1656 3500 
L 1656 2169 
L 2766 2169 
L 2766 3500 
L 3884 3500 
L 3884 0 
L 2766 0 
L 2766 1478 
L 1656 1478 
L 1656 0 
L 538 0 
L 538 3500 
z
" transform="scale(0.015625)"/>
      <path id="DejaVuSans-Bold-3d5" d="M 3366 3391 
L 3366 2478 
Q 3138 2634 2908 2709 
Q 2678 2784 2431 2784 
Q 1963 2784 1702 2511 
Q 1441 2238 1441 1747 
Q 1441 1256 1702 982 
Q 1963 709 2431 709 
Q 2694 709 2930 787 
Q 3166 866 3366 1019 
L 3366 103 
Q 3103 6 2833 -42 
Q 2563 -91 2291 -91 
Q 1344 -91 809 395 
Q 275 881 275 1747 
Q 275 2613 809 3098 
Q 1344 3584 2291 3584 
Q 2566 3584 2833 3536 
Q 3100 3488 3366 3391 
z
" transform="scale(0.015625)"/>
     </defs>
     <use xlink:href="#DejaVuSans-Bold-1b"/>
     <use xlink:href="#DejaVuSans-Bold-1c" transform="translate(69.578125 0)"/>
     <use xlink:href="#DejaVuSans-Bold-3" transform="translate(139.15625 0)"/>
     <use xlink:href="#DejaVuSans-Bold-3d1" transform="translate(173.96875 0)"/>
     <use xlink:href="#DejaVuSans-Bold-3d5" transform="translate(243.0625 0)"/>
    </g>
   </g>
   <g id="text_15">
    <!-- 83 нс -->
    <g style="fill: #0b0b0b" transform="translate(326.561855 217.686606) scale(0.105 -0.105)">
     <defs>
      <path id="DejaVuSans-Bold-16" d="M 2981 2516 
Q 3453 2394 3698 2092 
Q 3944 1791 3944 1325 
Q 3944 631 3412 270 
Q 2881 -91 1863 -91 
Q 1503 -91 1142 -33 
Q 781 25 428 141 
L 428 1069 
Q 766 900 1098 814 
Q 1431 728 1753 728 
Q 2231 728 2486 893 
Q 2741 1059 2741 1369 
Q 2741 1688 2480 1852 
Q 2219 2016 1709 2016 
L 1228 2016 
L 1228 2791 
L 1734 2791 
Q 2188 2791 2409 2933 
Q 2631 3075 2631 3366 
Q 2631 3634 2415 3781 
Q 2200 3928 1806 3928 
Q 1516 3928 1219 3862 
Q 922 3797 628 3669 
L 628 4550 
Q 984 4650 1334 4700 
Q 1684 4750 2022 4750 
Q 2931 4750 3382 4451 
Q 3834 4153 3834 3553 
Q 3834 3144 3618 2883 
Q 3403 2622 2981 2516 
z
" transform="scale(0.015625)"/>
     </defs>
     <use xlink:href="#DejaVuSans-Bold-1b"/>
     <use xlink:href="#DejaVuSans-Bold-16" transform="translate(69.578125 0)"/>
     <use xlink:href="#DejaVuSans-Bold-3" transform="translate(139.15625 0)"/>
     <use xlink:href="#DejaVuSans-Bold-3d1" transform="translate(173.96875 0)"/>
     <use xlink:href="#DejaVuSans-Bold-3d5" transform="translate(243.0625 0)"/>
    </g>
   </g>
   <g id="text_16">
    <!-- 33 нс -->
    <g style="fill: #0b0b0b" transform="translate(493.184284 263.344744) scale(0.105 -0.105)">
     <use xlink:href="#DejaVuSans-Bold-16"/>
     <use xlink:href="#DejaVuSans-Bold-16" transform="translate(69.578125 0)"/>
     <use xlink:href="#DejaVuSans-Bold-3" transform="translate(139.15625 0)"/>
     <use xlink:href="#DejaVuSans-Bold-3d1" transform="translate(173.96875 0)"/>
     <use xlink:href="#DejaVuSans-Bold-3d5" transform="translate(243.0625 0)"/>
    </g>
   </g>
   <g id="legend_1">
    <g id="patch_11">
     <path d="M 69.126641 41.577129 
L 90.126641 41.577129 
L 90.126641 34.227129 
L 69.126641 34.227129 
z
" style="fill: #eb6834"/>
    </g>
    <g id="text_17">
     <!-- JIT выключен -->
     <g style="fill: #52514e" transform="translate(98.526641 41.577129) scale(0.105 -0.105)">
      <defs>
       <path id="DejaVuSans-2d" d="M 628 4666 
L 1259 4666 
L 1259 325 
Q 1259 -519 939 -900 
Q 619 -1281 -91 -1281 
L -331 -1281 
L -331 -750 
L -134 -750 
Q 284 -750 456 -515 
Q 628 -281 628 325 
L 628 4666 
z
" transform="scale(0.015625)"/>
       <path id="DejaVuSans-2c" d="M 628 4666 
L 1259 4666 
L 1259 0 
L 628 0 
L 628 4666 
z
" transform="scale(0.015625)"/>
       <path id="DejaVuSans-37" d="M -19 4666 
L 3928 4666 
L 3928 4134 
L 2272 4134 
L 2272 0 
L 1638 0 
L 1638 4134 
L -19 4134 
L -19 4666 
z
" transform="scale(0.015625)"/>
       <path id="DejaVuSans-3ce" d="M 581 3500 
L 1153 3500 
L 1153 1856 
L 2775 3500 
L 3481 3500 
L 2144 2147 
L 3653 0 
L 3009 0 
L 1769 1766 
L 1153 1141 
L 1153 0 
L 581 0 
L 581 3500 
z
" transform="scale(0.015625)"/>
       <path id="DejaVuSans-3cf" d="M 238 0 
L 238 478 
Q 806 566 981 959 
Q 1194 1513 1194 2928 
L 1194 3500 
L 3559 3500 
L 3559 0 
L 2984 0 
L 2984 3041 
L 1769 3041 
L 1769 2694 
Q 1769 1344 1494 738 
Q 1200 91 238 0 
z
" transform="scale(0.015625)"/>
       <path id="DejaVuSans-3e2" d="M 3431 3097 
Q 2969 3097 2700 2736 
Q 2431 2375 2431 1747 
Q 2431 1119 2698 758 
Q 2966 397 3431 397 
Q 3891 397 4159 759 
Q 4428 1122 4428 1747 
Q 4428 2369 4159 2733 
Q 3891 3097 3431 3097 
z
M 1844 2103 
Q 1903 2697 2292 3140 
Q 2681 3584 3431 3584 
Q 4181 3584 4609 3096 
Q 5038 2609 5038 1747 
Q 5038 888 4609 398 
Q 4181 -91 3431 -91 
Q 2678 -91 2267 381 
Q 1856 853 1828 1628 
L 1178 1628 
L 1178 0 
L 603 0 
L 603 3500 
L 1178 3500 
L 1178 2103 
L 1844 2103 
z
" transform="scale(0.015625)"/>
       <path id="DejaVuSans-3c9" d="M 3597 1894 
L 3597 1613 
L 953 1613 
Q 991 1019 1311 708 
Q 1631 397 2203 397 
Q 2534 397 2845 478 
Q 3156 559 3463 722 
L 3463 178 
Q 3153 47 2828 -22 
Q 2503 -91 2169 -91 
Q 1331 -91 842 396 
Q 353 884 353 1716 
Q 353 2575 817 3079 
Q 1281 3584 2069 3584 
Q 2775 3584 3186 3129 
Q 3597 2675 3597 1894 
z
M 3022 2063 
Q 3016 2534 2758 2815 
Q 2500 3097 2075 3097 
Q 1594 3097 1305 2825 
Q 1016 2553 972 2059 
L 3022 2063 
z
" transform="scale(0.015625)"/>
      </defs>
      <use xlink:href="#DejaVuSans-2d"/>
      <use xlink:href="#DejaVuSans-2c" transform="translate(29.5 0)"/>
      <use xlink:href="#DejaVuSans-37" transform="translate(59 0)"/>
      <use xlink:href="#DejaVuSans-3" transform="translate(120.078125 0)"/>
      <use xlink:href="#DejaVuSans-3c6" transform="translate(151.859375 0)"/>
      <use xlink:href="#DejaVuSans-3df" transform="translate(210.796875 0)"/>
      <use xlink:href="#DejaVuSans-3ce" transform="translate(289.75 0)"/>
      <use xlink:href="#DejaVuSans-3cf" transform="translate(350.15625 0)"/>
      <use xlink:href="#DejaVuSans-3e2" transform="translate(414.078125 0)"/>
      <use xlink:href="#DejaVuSans-3db" transform="translate(498.265625 0)"/>
      <use xlink:href="#DejaVuSans-3c9" transform="translate(557.34375 0)"/>
      <use xlink:href="#DejaVuSans-3d1" transform="translate(618.875 0)"/>
     </g>
    </g>
    <g id="patch_12">
     <path d="M 191.372891 41.577129 
L 212.372891 41.577129 
L 212.372891 34.227129 
L 191.372891 34.227129 
z
" style="fill: #2a78d6"/>
    </g>
    <g id="text_18">
     <!-- JIT включён -->
     <g style="fill: #52514e" transform="translate(220.772891 41.577129) scale(0.105 -0.105)">
      <defs>
       <path id="DejaVuSans-3e5" d="M 3597 1894 
L 3597 1613 
L 953 1613 
Q 991 1019 1311 708 
Q 1631 397 2203 397 
Q 2534 397 2845 478 
Q 3156 559 3463 722 
L 3463 178 
Q 3153 47 2828 -22 
Q 2503 -91 2169 -91 
Q 1331 -91 842 396 
Q 353 884 353 1716 
Q 353 2575 817 3079 
Q 1281 3584 2069 3584 
Q 2775 3584 3186 3129 
Q 3597 2675 3597 1894 
z
M 3022 2063 
Q 3016 2534 2758 2815 
Q 2500 3097 2075 3097 
Q 1594 3097 1305 2825 
Q 1016 2553 972 2059 
L 3022 2063 
z
M 2363 4850 
L 2997 4850 
L 2997 4219 
L 2363 4219 
L 2363 4850 
z
M 1141 4850 
L 1775 4850 
L 1775 4219 
L 1141 4219 
L 1141 4850 
z
" transform="scale(0.015625)"/>
      </defs>
      <use xlink:href="#DejaVuSans-2d"/>
      <use xlink:href="#DejaVuSans-2c" transform="translate(29.5 0)"/>
      <use xlink:href="#DejaVuSans-37" transform="translate(59 0)"/>
      <use xlink:href="#DejaVuSans-3" transform="translate(120.078125 0)"/>
      <use xlink:href="#DejaVuSans-3c6" transform="translate(151.859375 0)"/>
      <use xlink:href="#DejaVuSans-3ce" transform="translate(210.796875 0)"/>
      <use xlink:href="#DejaVuSans-3cf" transform="translate(271.203125 0)"/>
      <use xlink:href="#DejaVuSans-3e2" transform="translate(335.125 0)"/>
      <use xlink:href="#DejaVuSans-3db" transform="translate(419.3125 0)"/>
      <use xlink:href="#DejaVuSans-3e5" transform="translate(478.390625 0)"/>
      <use xlink:href="#DejaVuSans-3d1" transform="translate(539.921875 0)"/>
     </g>
    </g>
   </g>
  </g>
 </g>
 <defs>
  <clipPath id="p99de4f6a91">
   <rect x="59.676641" y="24.14877" width="502.2" height="277.2"/>
  </clipPath>
 </defs>
</svg>
